<mxfile host="app.diagrams.net" modified="2022-08-20T10:09:48.348Z" agent="5.0 (Macintosh)" etag="CvrnAJw222LVm5K6C2bT" version="20.2.5" type="github">
  <diagram id="_NicEp2t6CpPbq7PptOK" name="Page-1">
    <mxGraphModel dx="1452" dy="932" grid="1" gridSize="10" guides="1" tooltips="1" connect="1" arrows="1" fold="1" page="1" pageScale="1" pageWidth="850" pageHeight="1100" math="0" shadow="0">
      <root>
        <mxCell id="0" />
        <mxCell id="1" parent="0" />
        <mxCell id="BQYwG80-6be2yZN5s-Ls-1" value="ARCHITECTURE OF NERDATING" style="text;html=1;strokeColor=none;fillColor=none;align=center;verticalAlign=middle;whiteSpace=wrap;rounded=0;" vertex="1" parent="1">
          <mxGeometry x="330" y="110" width="220" height="30" as="geometry" />
        </mxCell>
        <mxCell id="BQYwG80-6be2yZN5s-Ls-2" value="&lt;div&gt;CLI APPLICATION ON USER&#39;S SYSTEM&lt;/div&gt;&lt;div&gt;(FRONTEND)&lt;br&gt;&lt;/div&gt;" style="rounded=0;whiteSpace=wrap;html=1;" vertex="1" parent="1">
          <mxGeometry x="110" y="320" width="170" height="190" as="geometry" />
        </mxCell>
        <mxCell id="BQYwG80-6be2yZN5s-Ls-12" value="AUTHENTICATION SERVICE" style="rounded=0;whiteSpace=wrap;html=1;" vertex="1" parent="1">
          <mxGeometry x="730" y="130" width="220" height="100" as="geometry" />
        </mxCell>
        <mxCell id="BQYwG80-6be2yZN5s-Ls-14" value="&lt;div&gt;USER MANAGEMENT SERVICE&lt;/div&gt;" style="rounded=0;whiteSpace=wrap;html=1;" vertex="1" parent="1">
          <mxGeometry x="820" y="365" width="220" height="100" as="geometry" />
        </mxCell>
        <mxCell id="BQYwG80-6be2yZN5s-Ls-15" value="&lt;div&gt;PROFILE RECOMMENDATION&lt;/div&gt;&lt;div&gt;ENGINE&lt;br&gt;&lt;/div&gt;" style="rounded=0;whiteSpace=wrap;html=1;" vertex="1" parent="1">
          <mxGeometry x="720" y="500" width="220" height="100" as="geometry" />
        </mxCell>
        <mxCell id="BQYwG80-6be2yZN5s-Ls-16" value="&lt;div&gt;SOCIAL STATS &lt;br&gt;&lt;/div&gt;&lt;div&gt;COLLECTOR SERVICE&lt;/div&gt;" style="rounded=0;whiteSpace=wrap;html=1;" vertex="1" parent="1">
          <mxGeometry x="700" y="690" width="220" height="100" as="geometry" />
        </mxCell>
        <mxCell id="BQYwG80-6be2yZN5s-Ls-18" value="GATEWAY SERVICE" style="rounded=0;whiteSpace=wrap;html=1;" vertex="1" parent="1">
          <mxGeometry x="425" y="350" width="220" height="100" as="geometry" />
        </mxCell>
        <mxCell id="BQYwG80-6be2yZN5s-Ls-19" value="PROMETHEUS SERVICE" style="rounded=0;whiteSpace=wrap;html=1;" vertex="1" parent="1">
          <mxGeometry x="440" y="590" width="220" height="100" as="geometry" />
        </mxCell>
        <mxCell id="BQYwG80-6be2yZN5s-Ls-20" value="GRAFANA SERVICE" style="rounded=0;whiteSpace=wrap;html=1;" vertex="1" parent="1">
          <mxGeometry x="440" y="740" width="220" height="100" as="geometry" />
        </mxCell>
        <mxCell id="BQYwG80-6be2yZN5s-Ls-21" value="&lt;div&gt;LOG COLLECTION&lt;/div&gt;&lt;div&gt;KIBANA SERVICE&lt;br&gt;&lt;/div&gt;" style="rounded=0;whiteSpace=wrap;html=1;" vertex="1" parent="1">
          <mxGeometry x="1070" y="540" width="220" height="100" as="geometry" />
        </mxCell>
        <mxCell id="BQYwG80-6be2yZN5s-Ls-22" value="DATABASE SERVICE" style="shape=cylinder3;whiteSpace=wrap;html=1;boundedLbl=1;backgroundOutline=1;size=15;" vertex="1" parent="1">
          <mxGeometry x="1320" y="330" width="200" height="220" as="geometry" />
        </mxCell>
      </root>
    </mxGraphModel>
  </diagram>
</mxfile>
